<svg width="24" height="24" viewBox="0 0 24 24" fill="none" xmlns="http://www.w3.org/2000/svg">
<path d="M11 22C7.194 20.55 4 18.034 4 13V5.99996C4 5.73474 4.10536 5.48039 4.29289 5.29285C4.48043 5.10532 4.73478 4.99996 5 4.99996C7 4.99996 9.5 3.79996 11.24 2.27996C11.4519 2.09896 11.7214 1.99951 12 1.99951C12.2786 1.99951 12.5481 2.09896 12.76 2.27996C14.51 3.80996 17 4.99996 19 4.99996C19.2652 4.99996 19.5196 5.10532 19.7071 5.29285C19.8946 5.48039 20 5.73474 20 5.99996V9.99996" stroke="#1D4A58" stroke-width="1.5" stroke-linecap="round" stroke-linejoin="round"/>
<path d="M14.923 16.5471L14 16.1641" stroke="#1D4A58" stroke-width="2" stroke-linecap="round" stroke-linejoin="round"/>
<path d="M14.923 18.843L14 19.226" stroke="#1D4A58" stroke-width="2" stroke-linecap="round" stroke-linejoin="round"/>
<path d="M16.5471 14.923L16.1641 14" stroke="#1D4A58" stroke-width="2" stroke-linecap="round" stroke-linejoin="round"/>
<path d="M16.5471 20.467L16.1641 21.391" stroke="#1D4A58" stroke-width="2" stroke-linecap="round" stroke-linejoin="round"/>
<path d="M18.8428 14.923L19.2258 14" stroke="#1D4A58" stroke-width="2" stroke-linecap="round" stroke-linejoin="round"/>
<path d="M19.2248 21.391L18.8428 20.467" stroke="#1D4A58" stroke-width="2" stroke-linecap="round" stroke-linejoin="round"/>
<path d="M20.4668 16.5471L21.3898 16.1641" stroke="#1D4A58" stroke-width="2" stroke-linecap="round" stroke-linejoin="round"/>
<path d="M20.4668 18.843L21.3898 19.226" stroke="#1D4A58" stroke-width="2" stroke-linecap="round" stroke-linejoin="round"/>
</svg>
