<svg width="102" height="36" viewBox="0 0 102 36" fill="none" xmlns="http://www.w3.org/2000/svg">
<path d="M11.5568 27.6775H2.27557V1.49567H11.6335C14.267 1.49567 16.5341 2.01982 18.4347 3.06812C20.3352 4.10789 21.7969 5.60363 22.8196 7.55533C23.8509 9.50704 24.3665 11.8423 24.3665 14.561C24.3665 17.2883 23.8509 19.632 22.8196 21.5923C21.7969 23.5525 20.3267 25.0568 18.4091 26.105C16.5 27.1533 14.2159 27.6775 11.5568 27.6775ZM7.81108 22.9346H11.3267C12.9631 22.9346 14.3395 22.6448 15.456 22.0653C16.581 21.4772 17.4247 20.5695 17.9872 19.3423C18.5582 18.1065 18.8438 16.5127 18.8438 14.561C18.8438 12.6264 18.5582 11.0454 17.9872 9.81812C17.4247 8.59084 16.5852 7.68743 15.4688 7.10789C14.3523 6.52834 12.9759 6.23857 11.3395 6.23857H7.81108V22.9346ZM29.4447 27.6775V8.04113H34.8907V27.6775H29.4447ZM32.1805 5.50988C31.3708 5.50988 30.6762 5.24141 30.0967 4.70448C29.5257 4.15902 29.2402 3.50703 29.2402 2.74851C29.2402 1.99851 29.5257 1.35505 30.0967 0.818115C30.6762 0.27266 31.3708 -6.79493e-05 32.1805 -6.79493e-05C32.9902 -6.79493e-05 33.6805 0.27266 34.2515 0.818115C34.8311 1.35505 35.1208 1.99851 35.1208 2.74851C35.1208 3.50703 34.8311 4.15902 34.2515 4.70448C33.6805 5.24141 32.9902 5.50988 32.1805 5.50988ZM50.893 8.04113V12.132H38.7736V8.04113H50.893ZM41.5478 27.6775V6.62209C41.5478 5.1988 41.8248 4.0184 42.3787 3.0809C42.9412 2.1434 43.7083 1.44027 44.6799 0.971523C45.6515 0.502773 46.7552 0.268398 47.991 0.268398C48.8262 0.268398 49.589 0.332319 50.2793 0.46016C50.9782 0.588001 51.4981 0.703058 51.839 0.805331L50.8674 4.89624C50.6543 4.82806 50.3901 4.76414 50.0748 4.70448C49.768 4.64482 49.4526 4.61499 49.1287 4.61499C48.3276 4.61499 47.7694 4.80249 47.454 5.17749C47.1387 5.54397 46.981 6.05959 46.981 6.72437V27.6775H41.5478ZM65.8597 8.04113V12.132H53.7404V8.04113H65.8597ZM56.5145 27.6775V6.62209C56.5145 5.1988 56.7915 4.0184 57.3455 3.0809C57.908 2.1434 58.675 1.44027 59.6466 0.971523C60.6182 0.502773 61.7219 0.268398 62.9577 0.268398C63.7929 0.268398 64.5557 0.332319 65.246 0.46016C65.9449 0.588001 66.4648 0.703058 66.8057 0.805331L65.8341 4.89624C65.621 4.82806 65.3568 4.76414 65.0415 4.70448C64.7347 4.64482 64.4193 4.61499 64.0955 4.61499C63.2943 4.61499 62.7361 4.80249 62.4208 5.17749C62.1054 5.54397 61.9477 6.05959 61.9477 6.72437V27.6775H56.5145ZM73.6289 35.0411C72.9386 35.0411 72.2909 34.9857 71.6858 34.8749C71.0892 34.7727 70.5949 34.6406 70.2028 34.4786L71.4301 30.4133C72.0693 30.6093 72.6446 30.7158 73.1559 30.7329C73.6758 30.7499 74.1233 30.6306 74.4983 30.3749C74.8818 30.1193 75.1929 29.6846 75.4315 29.071L75.7511 28.24L68.7071 8.04113H74.4343L78.4997 22.4616H78.7042L82.8079 8.04113H88.5736L80.9414 29.7996C80.575 30.8565 80.0764 31.7769 79.4457 32.561C78.8236 33.3536 78.0352 33.963 77.0807 34.3891C76.1261 34.8238 74.9755 35.0411 73.6289 35.0411Z" fill="#FCE5CC"/>
<path d="M91.4148 32.6775H90.3068L93.5114 23.9502H94.6023L97.8068 32.6775H96.6989L94.0909 25.3309H94.0227L91.4148 32.6775ZM91.8239 29.2684H96.2898V30.2059H91.8239V29.2684ZM100.223 23.9502V32.6775H99.1662V23.9502H100.223Z" fill="white"/>
</svg>
