<svg width="87" height="36" viewBox="0 0 87 36" fill="none" xmlns="http://www.w3.org/2000/svg">
<g filter="url(#filter0_i_70_25)">
<path d="M9.55682 28H0.275568V1.81818H9.63352C12.267 1.81818 14.5341 2.34233 16.4347 3.39062C18.3352 4.4304 19.7969 5.92614 20.8196 7.87784C21.8509 9.82955 22.3665 12.1648 22.3665 14.8835C22.3665 17.6108 21.8509 19.9545 20.8196 21.9148C19.7969 23.875 18.3267 25.3793 16.4091 26.4276C14.5 27.4759 12.2159 28 9.55682 28ZM5.81108 23.2571H9.3267C10.9631 23.2571 12.3395 22.9673 13.456 22.3878C14.581 21.7997 15.4247 20.892 15.9872 19.6648C16.5582 18.429 16.8438 16.8352 16.8438 14.8835C16.8438 12.9489 16.5582 11.3679 15.9872 10.1406C15.4247 8.91335 14.5852 8.00994 13.4688 7.4304C12.3523 6.85085 10.9759 6.56108 9.33949 6.56108H5.81108V23.2571ZM27.4447 28V8.36364H32.8907V28H27.4447ZM30.1805 5.83239C29.3708 5.83239 28.6762 5.56392 28.0967 5.02699C27.5257 4.48153 27.2402 3.82954 27.2402 3.07102C27.2402 2.32102 27.5257 1.67756 28.0967 1.14062C28.6762 0.59517 29.3708 0.322442 30.1805 0.322442C30.9902 0.322442 31.6805 0.59517 32.2515 1.14062C32.8311 1.67756 33.1208 2.32102 33.1208 3.07102C33.1208 3.82954 32.8311 4.48153 32.2515 5.02699C31.6805 5.56392 30.9902 5.83239 30.1805 5.83239ZM48.893 8.36364V12.4545H36.7736V8.36364H48.893ZM39.5478 28V6.9446C39.5478 5.52131 39.8248 4.34091 40.3787 3.40341C40.9412 2.46591 41.7083 1.76278 42.6799 1.29403C43.6515 0.825282 44.7552 0.590907 45.991 0.590907C46.8262 0.590907 47.589 0.654828 48.2793 0.78267C48.9782 0.910511 49.4981 1.02557 49.839 1.12784L48.8674 5.21875C48.6543 5.15057 48.3901 5.08665 48.0748 5.02699C47.768 4.96733 47.4526 4.9375 47.1287 4.9375C46.3276 4.9375 45.7694 5.125 45.454 5.5C45.1387 5.86648 44.981 6.3821 44.981 7.04688V28H39.5478ZM63.8597 8.36364V12.4545H51.7404V8.36364H63.8597ZM54.5145 28V6.9446C54.5145 5.52131 54.7915 4.34091 55.3455 3.40341C55.908 2.46591 56.675 1.76278 57.6466 1.29403C58.6182 0.825282 59.7219 0.590907 60.9577 0.590907C61.7929 0.590907 62.5557 0.654828 63.246 0.78267C63.9449 0.910511 64.4648 1.02557 64.8057 1.12784L63.8341 5.21875C63.621 5.15057 63.3568 5.08665 63.0415 5.02699C62.7347 4.96733 62.4193 4.9375 62.0955 4.9375C61.2943 4.9375 60.7361 5.125 60.4208 5.5C60.1054 5.86648 59.9477 6.3821 59.9477 7.04688V28H54.5145ZM71.6289 35.3636C70.9386 35.3636 70.2909 35.3082 69.6858 35.1974C69.0892 35.0952 68.5949 34.9631 68.2028 34.8011L69.4301 30.7358C70.0693 30.9318 70.6446 31.0384 71.1559 31.0554C71.6758 31.0724 72.1233 30.9531 72.4983 30.6974C72.8818 30.4418 73.1929 30.0071 73.4315 29.3935L73.7511 28.5625L66.7071 8.36364H72.4343L76.4997 22.7841H76.7042L80.8079 8.36364H86.5736L78.9414 30.1222C78.575 31.179 78.0764 32.0994 77.4457 32.8835C76.8236 33.6761 76.0352 34.2855 75.0807 34.7116C74.1261 35.1463 72.9755 35.3636 71.6289 35.3636Z" fill="#1D4A58"/>
</g>
<defs>
<filter id="filter0_i_70_25" x="0.275391" y="0.32251" width="86.2983" height="39.041" filterUnits="userSpaceOnUse" color-interpolation-filters="sRGB">
<feFlood flood-opacity="0" result="BackgroundImageFix"/>
<feBlend mode="normal" in="SourceGraphic" in2="BackgroundImageFix" result="shape"/>
<feColorMatrix in="SourceAlpha" type="matrix" values="0 0 0 0 0 0 0 0 0 0 0 0 0 0 0 0 0 0 127 0" result="hardAlpha"/>
<feOffset dy="4"/>
<feGaussianBlur stdDeviation="2"/>
<feComposite in2="hardAlpha" operator="arithmetic" k2="-1" k3="1"/>
<feColorMatrix type="matrix" values="0 0 0 0 0 0 0 0 0 0 0 0 0 0 0 0 0 0 0.25 0"/>
<feBlend mode="normal" in2="shape" result="effect1_innerShadow_70_25"/>
</filter>
</defs>
</svg>
