<svg width="23" height="23" viewBox="0 0 23 23" fill="none" xmlns="http://www.w3.org/2000/svg">
<path d="M20.75 22.5L12.875 14.625C12.25 15.125 11.5312 15.5208 10.7188 15.8125C9.90625 16.1042 9.04167 16.25 8.125 16.25C5.85417 16.25 3.93229 15.4635 2.35938 13.8906C0.786458 12.3177 0 10.3958 0 8.125C0 5.85417 0.786458 3.93229 2.35938 2.35938C3.93229 0.786458 5.85417 0 8.125 0C10.3958 0 12.3177 0.786458 13.8906 2.35938C15.4635 3.93229 16.25 5.85417 16.25 8.125C16.25 9.04167 16.1042 9.90625 15.8125 10.7188C15.5208 11.5312 15.125 12.25 14.625 12.875L22.5 20.75L20.75 22.5ZM8.125 13.75C9.6875 13.75 11.0156 13.2031 12.1094 12.1094C13.2031 11.0156 13.75 9.6875 13.75 8.125C13.75 6.5625 13.2031 5.23438 12.1094 4.14062C11.0156 3.04688 9.6875 2.5 8.125 2.5C6.5625 2.5 5.23438 3.04688 4.14062 4.14062C3.04688 5.23438 2.5 6.5625 2.5 8.125C2.5 9.6875 3.04688 11.0156 4.14062 12.1094C5.23438 13.2031 6.5625 13.75 8.125 13.75Z" fill="#4D463E"/>
</svg>
