<svg width="87" height="36" viewBox="0 0 87 36" fill="none" xmlns="http://www.w3.org/2000/svg">
<path d="M9.28143 27.6776H0.000177532V1.49579H9.35813C11.9917 1.49579 14.2587 2.01994 16.1593 3.06824C18.0598 4.10801 19.5215 5.60375 20.5442 7.55545C21.5755 9.50716 22.0911 11.8424 22.0911 14.5611C22.0911 17.2884 21.5755 19.6322 20.5442 21.5924C19.5215 23.5526 18.0513 25.0569 16.1337 26.1052C14.2246 27.1535 11.9405 27.6776 9.28143 27.6776ZM5.53569 22.9347H9.05131C10.6877 22.9347 12.0641 22.6449 13.1806 22.0654C14.3056 21.4773 15.1493 20.5697 15.7118 19.3424C16.2828 18.1066 16.5684 16.5128 16.5684 14.5611C16.5684 12.6265 16.2828 11.0455 15.7118 9.81824C15.1493 8.59096 14.3098 7.68755 13.1934 7.10801C12.0769 6.52846 10.7005 6.23869 9.0641 6.23869H5.53569V22.9347ZM27.1693 27.6776V8.04125H32.6153V27.6776H27.1693ZM29.9051 5.51C29.0954 5.51 28.4008 5.24153 27.8213 4.7046C27.2503 4.15915 26.9648 3.50716 26.9648 2.74863C26.9648 1.99863 27.2503 1.35517 27.8213 0.818237C28.4008 0.272782 29.0954 5.4121e-05 29.9051 5.4121e-05C30.7148 5.4121e-05 31.4051 0.272782 31.9761 0.818237C32.5557 1.35517 32.8454 1.99863 32.8454 2.74863C32.8454 3.50716 32.5557 4.15915 31.9761 4.7046C31.4051 5.24153 30.7148 5.51 29.9051 5.51ZM48.6176 8.04125V12.1322H36.4982V8.04125H48.6176ZM39.2724 27.6776V6.62221C39.2724 5.19892 39.5494 4.01852 40.1034 3.08102C40.6659 2.14352 41.4329 1.44039 42.4045 0.971645C43.3761 0.502895 44.4798 0.26852 45.7156 0.26852C46.5508 0.26852 47.3136 0.332441 48.0039 0.460283C48.7028 0.588123 49.2227 0.70318 49.5636 0.805453L48.592 4.89636C48.3789 4.82818 48.1147 4.76426 47.7994 4.7046C47.4926 4.64494 47.1772 4.61511 46.8534 4.61511C46.0522 4.61511 45.494 4.80261 45.1786 5.17761C44.8633 5.54409 44.7056 6.05971 44.7056 6.72449V27.6776H39.2724ZM63.5843 8.04125V12.1322H51.465V8.04125H63.5843ZM54.2391 27.6776V6.62221C54.2391 5.19892 54.5161 4.01852 55.0701 3.08102C55.6326 2.14352 56.3996 1.44039 57.3712 0.971645C58.3428 0.502895 59.4465 0.26852 60.6823 0.26852C61.5175 0.26852 62.2803 0.332441 62.9706 0.460283C63.6695 0.588123 64.1894 0.70318 64.5303 0.805453L63.5587 4.89636C63.3456 4.82818 63.0814 4.76426 62.7661 4.7046C62.4593 4.64494 62.1439 4.61511 61.8201 4.61511C61.0189 4.61511 60.4607 4.80261 60.1454 5.17761C59.83 5.54409 59.6724 6.05971 59.6724 6.72449V27.6776H54.2391ZM71.3536 35.0412C70.6632 35.0412 70.0155 34.9859 69.4104 34.8751C68.8138 34.7728 68.3195 34.6407 67.9274 34.4787L69.1547 30.4134C69.7939 30.6094 70.3692 30.716 70.8805 30.733C71.4004 30.7501 71.8479 30.6307 72.2229 30.3751C72.6064 30.1194 72.9175 29.6847 73.1561 29.0711L73.4757 28.2401L66.4317 8.04125H72.159L76.2243 22.4617H76.4288L80.5325 8.04125H86.2982L78.6661 29.7998C78.2996 30.8566 77.801 31.777 77.1703 32.5611C76.5482 33.3537 75.7598 33.9631 74.8053 34.3893C73.8507 34.8239 72.7001 35.0412 71.3536 35.0412Z" fill="#FAFAFA"/>
</svg>
